<?xml version="1.0" encoding="UTF-8" standalone="no"?>
<!-- Created with Inkscape (http://www.inkscape.org/) -->

<svg
   xmlns:dc="http://purl.org/dc/elements/1.1/"
   xmlns:cc="http://creativecommons.org/ns#"
   xmlns:rdf="http://www.w3.org/1999/02/22-rdf-syntax-ns#"
   xmlns:svg="http://www.w3.org/2000/svg"
   xmlns="http://www.w3.org/2000/svg"
   xmlns:sodipodi="http://sodipodi.sourceforge.net/DTD/sodipodi-0.dtd"
   xmlns:inkscape="http://www.inkscape.org/namespaces/inkscape"
   width="64"
   height="64"
   id="svg3360"
   version="1.1"
   inkscape:version="0.91 r13725"
   viewBox="0 0 64 64"
   sodipodi:docname="drawing.svg">
  <sodipodi:namedview
     id="base"
     pagecolor="#ffffff"
     bordercolor="#666666"
     borderopacity="1.0"
     inkscape:pageopacity="0.0"
     inkscape:pageshadow="2"
     inkscape:zoom="5.6568543"
     inkscape:cx="16.271886"
     inkscape:cy="20.394139"
     inkscape:current-layer="layer1"
     showgrid="true"
     inkscape:document-units="px"
     inkscape:grid-bbox="true"
     inkscape:window-width="1317"
     inkscape:window-height="744"
     inkscape:window-x="49"
     inkscape:window-y="24"
     inkscape:window-maximized="1"
     showguides="true">
    <inkscape:grid
       id="grid4350"
       type="xygrid" />
  </sodipodi:namedview>
  <defs
     id="defs3362">
    <clipPath
       clipPathUnits="userSpaceOnUse"
       id="clipPath4530">
      <path
         d="M 64.000011,32 A 32,32 0 0 1 32.000587,64 32,32 0 0 1 1.1464774e-5,32.001151 32,32 0 0 1 31.998286,4.6535781e-8 32,32 0 0 1 64.000011,31.997699 l -32,0.0023 z"
         sodipodi:end="6.2831134"
         sodipodi:start="0"
         sodipodi:ry="32"
         sodipodi:rx="32"
         sodipodi:cy="32"
         sodipodi:cx="32.000011"
         sodipodi:type="arc"
         id="path4532"
         style="fill:#9c27b0;fill-opacity:1;fill-rule:evenodd;stroke:none;stroke-width:1px;stroke-linecap:butt;stroke-linejoin:miter;stroke-opacity:1" />
    </clipPath>
  </defs>
  <metadata
     id="metadata3365">
    <rdf:RDF>
      <cc:Work
         rdf:about="">
        <dc:format>image/svg+xml</dc:format>
        <dc:type
           rdf:resource="http://purl.org/dc/dcmitype/StillImage" />
        <dc:title></dc:title>
      </cc:Work>
    </rdf:RDF>
  </metadata>
  <g
     id="layer1"
     inkscape:label="Layer 1"
     inkscape:groupmode="layer">
    <path
       style="fill:#9c27b0;fill-rule:evenodd;stroke:none;stroke-width:1px;stroke-linecap:butt;stroke-linejoin:miter;stroke-opacity:1;fill-opacity:1"
       id="path3368"
       sodipodi:type="arc"
       sodipodi:cx="32.000011"
       sodipodi:cy="32"
       sodipodi:rx="32"
       sodipodi:ry="32"
       sodipodi:start="0"
       sodipodi:end="6.2831134"
       d="M 64.000011,32 A 32,32 0 0 1 32.000587,64 32,32 0 0 1 1.1464774e-5,32.001151 32,32 0 0 1 31.998286,4.6535781e-8 32,32 0 0 1 64.000011,31.997699 l -32,0.0023 z" />
    <g
       transform="matrix(0.13710001,0,0,0.12702193,-19.928771,-35.24656)"
       id="layer1-8" />
    <g
       style="fill:#000000;fill-opacity:1;fill-rule:evenodd;stroke:none;stroke-width:1px;stroke-linecap:butt;stroke-linejoin:miter;stroke-opacity:0;opacity:0.272"
       id="g4373"
       clip-path="url(#clipPath4530)">
      <path
         style="fill:#000000;fill-opacity:1;opacity:1"
         d="M 32.507812 11.519531 C 31.999795 12.000463 16.056297 27.943703 15 29 L 19.501953 33.501953 L 19.5 33.503906 L 34.996094 49 L 29 49 L 736.10742 756.10742 L 743.10742 756.10742 L 743.10742 731.10742 L 752.60742 740.60742 L 757.10742 736.10742 L 50 29 L 49.994141 29.005859 L 32.507812 11.519531 z "
         id="path4375" />
      <path
         inkscape:connector-curvature="0"
         d="m 36,24 9.5,9.5 707.10678,707.10678 -9.5,-9.5 z"
         id="path4379"
         style="fill:#000000;fill-opacity:1" />
      <path
         inkscape:connector-curvature="0"
         d="M 50,29 32.508019,11.519068 739.6148,718.62585 l 17.49198,17.48093 z"
         id="path4383"
         style="fill:#000000;fill-opacity:1" />
      <path
         inkscape:connector-curvature="0"
         d="m 15,29 4.499024,4.503371 707.106786,707.106779 -4.49903,-4.50337 z"
         id="path4387"
         style="fill:#000000;fill-opacity:1" />
    </g>
    <path
       style="fill:#ffffff;fill-opacity:1;fill-rule:evenodd;stroke:none;stroke-width:1px;stroke-linecap:butt;stroke-linejoin:miter;stroke-opacity:0"
       d="m 29,49 7,0 0,-25 9.5,9.5 L 50,29 32.508019,11.519068 C 32,12 16.056297,27.943703 15,29 L 19.499024,33.503371 29,24 Z"
       id="path4352"
       inkscape:connector-curvature="0"
       sodipodi:nodetypes="cccccccccc" />
  </g>
</svg>
